<svg width="547" height="785" viewBox="0 0 547 785" fill="none" xmlns="http://www.w3.org/2000/svg">
<g opacity="0.795089">
<path d="M551.007 764.407L122.545 441.537C107.771 430.405 104.832 409.428 115.96 394.661L338.676 99.1067C349.804 84.3397 370.778 81.3833 385.551 92.5159L814.014 415.386C828.779 426.512 831.727 447.495 820.599 462.262L597.883 757.816C586.755 772.583 565.773 775.534 551.007 764.407" fill="white"/>
<path d="M551.007 764.407L122.545 441.537C107.771 430.405 104.832 409.428 115.96 394.661L338.676 99.1067C349.804 84.3397 370.778 81.3833 385.551 92.5159L814.014 415.386C828.779 426.512 831.727 447.495 820.599 462.262L597.883 757.816C586.755 772.583 565.773 775.534 551.007 764.407" stroke="#2980B9" stroke-width="3"/>
<path d="M379.233 542.961C376.313 543.453 373.563 545.065 371.792 547.415C370.021 549.766 369.229 552.854 369.561 555.796C370.032 558.703 371.627 561.464 373.963 563.223C376.298 564.983 379.374 565.742 382.316 565.408C385.227 564.909 387.986 563.303 389.757 560.953C391.528 558.603 392.311 555.508 391.988 552.572C391.095 546.656 384.969 542.039 379.233 542.961" fill="#2980B9"/>
<path d="M358.146 521.1L341.464 508.529C336.851 505.053 330.09 506.268 326.354 511.226C322.617 516.184 323.313 523.018 327.926 526.494L344.608 539.065C349.221 542.541 355.981 541.326 359.718 536.368C363.454 531.409 362.758 524.576 358.146 521.1" fill="#2980B9"/>
<path d="M308.03 482.581L299.903 476.457C295.409 473.07 288.743 474.357 285.007 479.315C281.271 484.274 281.871 491.036 286.365 494.422L294.492 500.547C298.987 503.933 305.652 502.647 309.388 497.688C313.125 492.73 312.525 485.968 308.03 482.581" fill="#2980B9"/>
<path d="M269.186 452.543L252.504 439.972C247.892 436.496 241.131 437.711 237.394 442.669C233.658 447.627 234.354 454.461 238.966 457.937L255.649 470.508C260.261 473.984 267.022 472.769 270.758 467.811C274.495 462.852 273.799 456.018 269.186 452.543" fill="#2980B9"/>
<path d="M419.559 529.096C423.296 524.138 422.521 517.245 417.812 513.697L341.168 455.941C336.458 452.392 329.619 453.548 325.883 458.506C322.146 463.465 322.921 470.358 327.63 473.906L404.274 531.662C408.984 535.211 415.823 534.055 419.559 529.096" fill="#2980B9"/>
<path d="M305.903 430.457C301.409 427.07 294.743 428.357 291.007 433.315C287.271 438.274 287.871 445.036 292.365 448.422L300.492 454.547C304.987 457.933 311.652 456.647 315.388 451.688C319.125 446.73 318.525 439.968 314.03 436.581L305.903 430.457Z" fill="#2980B9"/>
</g>
<path d="M455.193 482.034L26.7301 159.164C11.9567 148.031 9.01737 127.055 20.1451 112.288L242.862 -183.267C253.989 -198.034 274.963 -200.99 289.737 -189.857L718.199 133.012C732.965 144.139 735.912 165.121 724.784 179.888L502.068 475.443C490.94 490.21 469.958 493.16 455.193 482.034" fill="#2980B9"/>
<path d="M288.418 260.587C285.498 261.08 282.748 262.692 280.977 265.042C279.206 267.392 278.414 270.48 278.746 273.423C279.218 276.329 280.813 279.09 283.148 280.85C285.484 282.61 288.56 283.369 291.501 283.035C294.412 282.536 297.172 280.93 298.943 278.58C300.714 276.23 301.496 273.135 301.174 270.199C300.281 264.283 294.154 259.666 288.418 260.587" fill="white"/>
<path d="M267.331 238.726L250.649 226.155C246.037 222.68 239.276 223.894 235.539 228.853C231.803 233.811 232.499 240.645 237.111 244.121L253.793 256.692C258.406 260.167 265.167 258.953 268.903 253.994C272.64 249.036 271.944 242.202 267.331 238.726" fill="white"/>
<path d="M217.216 200.208L209.088 194.084C204.594 190.697 197.929 191.984 194.192 196.942C190.456 201.9 191.056 208.662 195.551 212.049L203.678 218.173C208.172 221.56 214.837 220.273 218.574 215.315C222.31 210.356 221.71 203.595 217.216 200.208" fill="white"/>
<path d="M178.372 170.169L161.69 157.598C157.077 154.122 150.316 155.337 146.58 160.296C142.843 165.254 143.539 172.088 148.152 175.564L164.834 188.134C169.447 191.61 176.207 190.396 179.944 185.437C183.68 180.479 182.984 173.645 178.372 170.169" fill="white"/>
<path d="M328.745 246.723C332.481 241.765 331.707 234.872 326.997 231.323L250.353 173.568C245.644 170.019 238.805 171.175 235.068 176.133C231.332 181.091 232.106 187.984 236.815 191.533L313.46 249.289C318.169 252.837 325.008 251.682 328.745 246.723" fill="white"/>
<path d="M215.088 148.084C210.594 144.697 203.929 145.984 200.192 150.942C196.456 155.901 197.056 162.662 201.551 166.049L209.678 172.173C214.172 175.56 220.837 174.273 224.574 169.315C228.31 164.356 227.71 157.595 223.216 154.208L215.088 148.084Z" fill="white"/>
<path d="M449.212 340.958C427.848 369.309 387.554 374.972 359.203 353.608C330.852 332.244 325.19 291.95 346.554 263.599C367.918 235.248 408.212 229.585 436.562 250.949C464.913 272.313 470.576 312.607 449.212 340.958" fill="#E74C3D"/>
<path d="M509.525 386.407C488.161 414.758 447.867 420.421 419.516 399.057C391.165 377.693 385.502 337.399 406.866 309.048C428.23 280.697 468.524 275.034 496.875 296.398C525.226 317.762 530.889 358.056 509.525 386.407" fill="#F0C41B"/>
<path fill-rule="evenodd" clip-rule="evenodd" d="M293.213 87.374L176.846 -0.315137C166.124 -8.39502 163.964 -23.6927 172.035 -34.4024L233.65 -116.168C241.72 -126.878 257.02 -129.019 267.743 -120.939L384.11 -33.2502C394.833 -25.1703 396.992 -9.8726 388.921 0.83711L327.306 82.6031C319.236 93.3128 303.936 95.4539 293.213 87.374ZM299.682 78.1649L183.915 -9.07133C177.977 -13.5463 176.768 -21.9949 181.236 -27.9235L242.414 -109.11C246.881 -115.038 255.336 -116.205 261.274 -111.73L377.041 -24.494C382.988 -20.0126 384.188 -11.5704 379.72 -5.64185L318.542 75.5442C314.075 81.4728 305.629 82.6463 299.682 78.1649ZM250.902 -103.168C251.818 -104.383 253.533 -104.63 254.758 -103.707L371.125 -16.0182C372.341 -15.1016 372.584 -13.3784 371.669 -12.1635L310.054 69.6025C309.138 70.8173 307.415 71.0585 306.199 70.142L189.831 -17.5472C188.606 -18.4702 188.372 -20.187 189.287 -21.4018L250.902 -103.168Z" fill="#F3D55C"/>
</svg>
